<svg width="55" height="56" viewBox="0 0 55 56" fill="none" xmlns="http://www.w3.org/2000/svg">
<path d="M25.6737 10.9084L25.6248 10.8636C23.0024 8.45963 19.3284 7.57219 15.8979 8.51394C11.5402 9.71012 7.04196 10.3163 2.52319 10.3163H1.0247C0.113601 10.3163 -0.342626 11.4178 0.301545 12.0621L1.48668 13.2473C2.33964 14.1002 3.4966 14.5794 4.70291 14.5794H5.79002C6.99633 14.5794 8.15329 15.0586 9.00625 15.9116C9.85921 16.7646 11.0162 17.2438 12.2225 17.2438H14.4346C15.6409 17.2438 16.7978 17.723 17.6508 18.5759L18.2725 19.1977C19.1255 20.0507 20.2825 20.5299 21.4888 20.5299H25.6737V10.9084Z" fill="#62A4FB"/>
<path d="M26.0248 29.8272C26.5453 29.655 26.8015 29.1779 27.3037 28.8241C27.2351 28.8029 27.1665 28.782 27.0982 28.761C23.4063 27.6304 19.7378 26.4235 16.0958 25.1415C15.5621 24.9537 15.0071 24.7502 14.6215 24.3361C13.8041 23.4586 14.2635 21.7736 15.4131 21.4323C16.3464 21.1552 17.3076 21.6695 18.2623 21.8597C19.0626 22.0191 19.9298 21.9373 20.6326 21.5224C21.3353 21.1076 21.8436 20.3331 21.8326 19.5171C21.8162 18.3108 20.6862 17.3438 19.4984 17.1321C18.3106 16.9204 17.0994 17.2929 15.9806 17.7445C15.2973 18.0203 14.6268 18.2147 13.9716 18.5517C13.3792 18.8564 12.852 19.2351 12.413 19.729C11.5517 20.6981 11.0118 21.8784 11.0211 23.1941C11.0311 24.5774 11.6563 25.9452 12.6959 26.8579C13.7065 27.7452 15.0262 28.1782 16.3059 28.5923C18.4002 29.27 20.4921 29.9556 22.5814 30.6484C24.0893 30.9793 24.9414 30.1856 26.0248 29.8272Z" fill="#A2F5C3"/>
<path d="M28.8985 10.9084L28.9474 10.8636C31.5698 8.45963 35.2438 7.57219 38.6743 8.51394C43.0319 9.71012 47.5301 10.3163 52.0489 10.3163H53.5473C54.4584 10.3163 54.9146 11.4178 54.2704 12.0621L53.0853 13.2473C52.2323 14.1002 51.0754 14.5794 49.8691 14.5794H48.782C47.5757 14.5794 46.4187 15.0586 45.5657 15.9116C44.7128 16.7646 43.5558 17.2438 42.3495 17.2438H40.1374C38.9311 17.2438 37.7742 17.723 36.9212 18.5759L36.2996 19.1977C35.4466 20.0507 34.2896 20.5299 33.0833 20.5299H28.8985V10.9084Z" fill="#62A4FB"/>
<path d="M53.5474 10.3163H52.049C51.4296 10.3163 50.8107 10.3038 50.1924 10.281L49.7052 10.7683C48.8523 11.6212 47.6953 12.1004 46.489 12.1004H45.4019C44.1956 12.1004 43.0386 12.5796 42.1857 13.4326C41.3327 14.2856 40.1757 14.7648 38.9694 14.7648H36.7574C35.551 14.7648 34.3941 15.244 33.5411 16.097L32.9195 16.7187C32.0665 17.5717 30.9096 18.0509 29.7032 18.0509H28.8986V20.5298H33.0835C34.2899 20.5298 35.4468 20.0505 36.2998 19.1976L36.9214 18.5758C37.7744 17.7229 38.9313 17.2437 40.1376 17.2437H42.3497C43.556 17.2437 44.7129 16.7644 45.5659 15.9115C46.4189 15.0585 47.5759 14.5793 48.7822 14.5793H49.8693C51.0756 14.5793 52.2326 14.1001 53.0855 13.2471L54.2707 12.062C54.9148 11.4179 54.4585 10.3163 53.5474 10.3163Z" fill="#5392F9"/>
<path d="M32.495 44.431C31.6976 43.6111 30.7613 42.9505 29.786 42.3463H29.3584C28.7422 42.5706 28.1365 42.8249 27.541 43.0982C27.2654 43.2246 26.9919 43.3555 26.7204 43.4907C26.6309 43.5354 26.542 43.5811 26.453 43.6265C26.4097 43.6496 26.2379 43.7394 26.1868 43.7671C26.9912 44.1477 27.7977 44.5253 28.5747 44.9564C29.8487 45.6634 31.1014 46.5866 31.6623 47.9314C32.1064 48.9962 32.0562 50.1744 31.807 51.3185C31.6755 51.922 32.3631 52.3782 32.858 52.009C33.7822 51.3196 34.389 50.154 34.4503 48.9811C34.5391 47.2847 33.6793 45.649 32.495 44.431Z" fill="#BED9FD"/>
<path d="M30.9747 3.68948C30.9747 1.65184 29.3232 0 27.2861 0C25.249 0 23.5976 1.65184 23.5976 3.68948C23.5976 5.14357 24.439 6.4007 25.661 7.00183V54.3809C25.661 55.2752 26.3859 56.0002 27.2802 56.0002C28.1746 56.0002 28.8995 55.2752 28.8995 54.3809V7.00791C30.1279 6.40915 30.9747 5.1483 30.9747 3.68948Z" fill="#BED9FD"/>
<path d="M27.2861 0C26.6767 0 26.1024 0.148733 25.5959 0.41048C26.7825 1.02367 27.5944 2.26142 27.5944 3.68948C27.5944 5.11731 26.7823 6.35371 25.5961 6.96701C25.6179 6.97828 25.6389 6.9909 25.661 7.00183V39.9386L24.5342 41.142L25.661 42.7484V54.381C25.661 55.2754 26.3859 56.0003 27.2802 56.0003C28.1745 56.0003 28.8995 55.2754 28.8995 54.381V32.7725L30.0263 31.3173L28.8995 28.8666V7.00791C30.128 6.40915 30.9747 5.14841 30.9747 3.68959C30.9747 1.65184 29.3232 0 27.2861 0V0Z" fill="#9EC8FC"/>
<path d="M43.3371 22.2023C43.1443 21.2224 42.6335 20.3184 41.9237 19.617C41.3047 19.0054 40.5344 18.5477 39.6916 18.3278C39.2946 18.2243 38.8837 18.1692 38.5001 18.0236C38.0901 17.8679 37.7251 17.614 37.3284 17.4269C36.6401 17.1023 35.8554 16.9853 35.1022 17.0954C33.8573 17.2772 32.6429 18.2587 32.6169 19.5166C32.5978 20.4484 33.2485 21.3149 34.0935 21.7082C34.9384 22.1016 35.935 22.0719 36.8247 21.794C37.429 21.6053 38.026 21.304 38.6571 21.3526C39.3791 21.4084 40.0267 21.9683 40.2128 22.6681C40.3989 23.368 40.1277 24.1604 39.5694 24.6216C39.1908 24.9344 38.7127 25.0951 38.2465 25.2492C34.0835 26.6266 29.9206 28.0038 25.7576 29.3812C24.3703 29.8402 22.9503 30.3165 21.8092 31.2295C20.0773 32.6153 19.4025 34.716 19.5487 36.8658C19.702 39.1171 21.1528 40.8271 22.9815 42.0486C23.8306 42.6157 24.7404 43.077 25.6622 43.5185V39.9387C25.5065 39.8485 25.3507 39.7583 25.1949 39.6682C24.5314 39.284 23.8532 38.8876 23.3641 38.2971C22.3626 37.0882 22.4275 35.1318 23.5069 33.992C24.2428 33.2149 25.3036 32.8526 26.32 32.5176L28.8994 31.6676L30.4346 32.2885L31.8465 30.6964L38.4822 28.5096C39.5125 28.1701 40.5631 27.8202 41.4308 27.1691C42.9265 26.047 43.698 24.0369 43.3371 22.2023Z" fill="#BED9FD"/>
<path d="M34.0567 32.8423C33.4564 31.8756 32.8157 31.2739 31.8465 30.6962C30.373 31.1819 30.3109 31.2063 28.8994 31.6674L28.902 32.7724C29.5494 33.0037 30.1853 33.2767 30.697 33.729C31.7056 34.6201 32.0485 36.1931 31.4795 37.4128C31.1388 38.1428 30.5277 38.7106 29.8857 39.1973C28.5796 40.1875 27.0989 40.9163 25.6646 41.7096C24.2302 42.5027 22.8124 43.3834 21.7212 44.6063C20.63 45.8291 19.8904 47.4474 20.0363 49.08C20.1354 50.1887 20.7123 51.2726 21.5771 51.9477C22.0738 52.3353 22.7835 51.901 22.6561 51.284C22.4166 50.1246 22.3309 48.9425 22.7762 47.8678C23.3697 46.4354 24.7748 45.5257 26.1494 44.8088C29.0366 43.3034 32.3565 42.064 34.0112 39.2596C34.2647 38.8299 34.4664 38.3689 34.6138 37.891C35.1307 36.2146 34.9799 34.3286 34.0567 32.8423Z" fill="#A2F5C3"/>
</svg>
