<svg width="30" height="32" viewBox="0 0 30 32" fill="none" xmlns="http://www.w3.org/2000/svg">
<path d="M28.1252 5.73699e-06H22.5002C21.9825 5.73699e-06 21.5627 0.419756 21.5627 0.937506C21.5627 1.45526 21.9825 1.87501 22.5002 1.87501H25.8619L20.8024 6.93451C19.184 5.72026 17.1746 5.00001 15.0002 5.00001C12.8258 5.00001 10.8164 5.72026 9.19801 6.93451L7.12408 4.86051L8.99314 4.3597C9.49326 4.2257 9.79001 3.71163 9.65601 3.21151C9.52201 2.71145 9.00801 2.41451 8.50783 2.54863L6.63876 3.04945L7.13958 1.18038C7.27358 0.680256 6.97683 0.166193 6.4767 0.0321933C5.97633 -0.101932 5.46245 0.194943 5.32851 0.695069L4.8277 2.56413L3.56776 1.30426C3.20164 0.938131 2.60801 0.938131 2.24195 1.30426C1.87583 1.67038 1.87583 2.26394 2.24195 2.63007L3.50189 3.89001L1.63283 4.39082C1.1327 4.52482 0.835952 5.03888 0.969952 5.53901C1.08214 5.95788 1.46095 6.23414 1.87489 6.23414C1.9552 6.23414 2.03683 6.2237 2.11814 6.20195L3.9872 5.70114L3.48639 7.5702C3.35239 8.07032 3.64914 8.58439 4.14926 8.71839C4.23058 8.7402 4.31214 8.75058 4.39251 8.75058C4.80645 8.75058 5.18526 8.47432 5.29745 8.05545L5.79826 6.18639L7.81208 8.2002C6.25945 9.91876 5.3127 12.1946 5.3127 14.6875C5.3127 19.713 9.15926 23.8564 14.0627 24.3295V27H11.2502C10.7325 27 10.3127 27.4198 10.3127 27.9375C10.3127 28.4553 10.7325 28.875 11.2502 28.875H14.0627V31.0625C14.0627 31.5803 14.4825 32 15.0002 32C15.518 32 15.9377 31.5803 15.9377 31.0625V28.875H18.7502C19.268 28.875 19.6877 28.4553 19.6877 27.9375C19.6877 27.4198 19.268 27 18.7502 27H15.9377V24.3295C20.8411 23.8565 24.6877 19.713 24.6877 14.6875C24.6877 12.1946 23.741 9.9187 22.1884 8.20014L27.1877 3.20082V6.56251C27.1877 7.08026 27.6075 7.50001 28.1252 7.50001C28.643 7.50001 29.0627 7.08026 29.0627 6.56251V0.937506C29.0627 0.419756 28.643 5.73699e-06 28.1252 5.73699e-06ZM22.8127 14.6875C22.8127 18.9953 19.308 22.5 15.0002 22.5C10.6924 22.5 7.1877 18.9953 7.1877 14.6875C7.1877 10.3797 10.6924 6.87501 15.0002 6.87501C19.308 6.87501 22.8127 10.3797 22.8127 14.6875Z" fill="#5B5B5B"/>
</svg>
